HIERARCHY
ROOT root_translation_joint
{
	OFFSET	0	0	0
	CHANNELS 6 Xposition Yposition Zposition Zrotation Xrotation Yrotation
	JOINT torso_x_joint
	{
		OFFSET	0	0.010284	0.327936
		CHANNELS 3  Zrotation Xrotation Yrotation
		JOINT head_x_joint
		{
			OFFSET	0	-0.020052	0.50232
			CHANNELS 3  Zrotation Xrotation Yrotation
			JOINT upper_left_specula_joint
			{
				OFFSET	-0.0873828	0.0381	-0.153156
				CHANNELS 3  Zrotation Xrotation Yrotation
				JOINT upper_left_arm_x_joint
				{
					OFFSET	-0.169296	0	0
					CHANNELS 3  Zrotation Xrotation Yrotation
					JOINT lower_left_arm_joint
					{
						OFFSET	-0.001464	-0.00114	-0.34296
						CHANNELS 3  Zrotation Xrotation Yrotation
						JOINT left_hand_x_joint
						{
							OFFSET	-0.001728	-0.004992	-0.325056
							CHANNELS 3  Zrotation Xrotation Yrotation
							JOINT left_hand_endeffector_joint
							{
								OFFSET	-0.009816	0.007404	-0.21684
								CHANNELS 3  Zrotation Xrotation Yrotation
								End Site
								{
									OFFSET	-2.25979e-05	1.70451e-05	-0.000499198
								}
							}
							JOINT left_hand_cp_1_joint
							{
								OFFSET	0.01757	0.0606	-0.22569
								CHANNELS 3  Zrotation Xrotation Yrotation
								End Site
								{
									OFFSET	3.74876e-05	0.000129297	-0.000481536
								}
							}
							JOINT left_hand_cp_2_joint
							{
								OFFSET	0.01757	-0.06468	-0.22569
								CHANNELS 3  Zrotation Xrotation Yrotation
								End Site
								{
									OFFSET	3.73144e-05	-0.000137365	-0.000479311
								}
							}
							JOINT left_hand_cp_3_joint
							{
								OFFSET	0.01757	-0.06468	-0.02705
								CHANNELS 3  Zrotation Xrotation Yrotation
								End Site
								{
									OFFSET	0.000121547	-0.000447448	-0.000187128
								}
							}
							JOINT left_hand_cp_4_joint
							{
								OFFSET	0.01757	0.0606	-0.02705
								CHANNELS 3  Zrotation Xrotation Yrotation
								End Site
								{
									OFFSET	0.000127969	0.000441372	-0.000197015
								}
							}
						}
					}
				}
			}
			JOINT upper_right_specula_joint
			{
				OFFSET	0.0873852	0.0381	-0.153312
				CHANNELS 3  Zrotation Xrotation Yrotation
				JOINT upper_right_arm_x_joint
				{
					OFFSET	0.16926	0.003768	-0.0003
					CHANNELS 3  Zrotation Xrotation Yrotation
					JOINT lower_right_arm_joint
					{
						OFFSET	-0.005592	-0.007404	-0.342828
						CHANNELS 3  Zrotation Xrotation Yrotation
						JOINT right_hand_x_joint
						{
							OFFSET	-0.004728	-0.003084	-0.325056
							CHANNELS 3  Zrotation Xrotation Yrotation
							JOINT right_hand_endeffector_joint
							{
								OFFSET	-0.000348	0.010884	-0.21684
								CHANNELS 3  Zrotation Xrotation Yrotation
								End Site
								{
									OFFSET	-8.01425e-07	2.50653e-05	-0.000499371
								}
							}
							JOINT right_hand_cp_1_joint
							{
								OFFSET	-0.01229	0.05553	-0.01712
								CHANNELS 3  Zrotation Xrotation Yrotation
								End Site
								{
									OFFSET	-0.000103461	0.000467467	-0.000144121
								}
							}
							JOINT right_hand_cp_2_joint
							{
								OFFSET	-0.01229	-0.06975	-0.01712
								CHANNELS 3  Zrotation Xrotation Yrotation
								End Site
								{
									OFFSET	-8.43349e-05	-0.00047863	-0.000117479
								}
							}
							JOINT right_hand_cp_3_joint
							{
								OFFSET	-0.01229	-0.06975	-0.21577
								CHANNELS 3  Zrotation Xrotation Yrotation
								End Site
								{
									OFFSET	-2.7059e-05	-0.000153569	-0.000475062
								}
							}
							JOINT right_hand_cp_4_joint
							{
								OFFSET	-0.01229	0.05553	-0.21577
								CHANNELS 3  Zrotation Xrotation Yrotation
								End Site
								{
									OFFSET	-2.75388e-05	0.000124429	-0.000483486
								}
							}
						}
					}
				}
			}
		}
	}
	JOINT upper_left_leg_x_joint
	{
		OFFSET	-0.106044	-0.001956	-0.144312
		CHANNELS 3  Zrotation Xrotation Yrotation
		JOINT lower_left_leg_joint
		{
			OFFSET	-0.025332	-0.01956	-0.477768
			CHANNELS 3  Zrotation Xrotation Yrotation
			JOINT left_foot_x_joint
			{
				OFFSET	-0.008988	0.036996	-0.474504
				CHANNELS 3  Zrotation Xrotation Yrotation
				JOINT left_foot_cp_1_joint
				{
					OFFSET	0.08027	0.27372	-0.12195
					CHANNELS 3  Zrotation Xrotation Yrotation
					End Site
					{
						OFFSET	0.000129375	0.000441168	-0.000196553
					}
				}
				JOINT left_foot_cp_2_joint
				{
					OFFSET	-0.09166	0.27372	-0.12195
					CHANNELS 3  Zrotation Xrotation Yrotation
					End Site
					{
						OFFSET	-0.000146252	0.000436747	-0.000194583
					}
				}
				JOINT left_foot_cp_3_joint
				{
					OFFSET	-0.09166	-0.07769	-0.12195
					CHANNELS 3  Zrotation Xrotation Yrotation
					End Site
					{
						OFFSET	-0.0002677	-0.0002269	-0.000356164
					}
				}
				JOINT left_foot_cp_4_joint
				{
					OFFSET	0.08027	-0.07769	-0.12195
					CHANNELS 3  Zrotation Xrotation Yrotation
					End Site
					{
						OFFSET	0.000242682	-0.000234882	-0.000368695
					}
				}
			}
		}
	}
	JOINT upper_right_leg_x_joint
	{
		OFFSET	0.106044	-0.001956	-0.1443
		CHANNELS 3  Zrotation Xrotation Yrotation
		JOINT lower_right_leg_joint
		{
			OFFSET	0.025332	-0.01956	-0.47778
			CHANNELS 3  Zrotation Xrotation Yrotation
			JOINT right_foot_x_joint
			{
				OFFSET	0.008988	0.036996	-0.474504
				CHANNELS 3  Zrotation Xrotation Yrotation
				JOINT right_foot_cp_1_joint
				{
					OFFSET	0.10495	0.2684	-0.12195
					CHANNELS 3  Zrotation Xrotation Yrotation
					End Site
					{
						OFFSET	0.00016769	0.000428851	-0.000194852
					}
				}
				JOINT right_foot_cp_2_joint
				{
					OFFSET	-0.06698	0.2684	-0.12195
					CHANNELS 3  Zrotation Xrotation Yrotation
					End Site
					{
						OFFSET	-0.000110777	0.000443902	-0.000201691
					}
				}
				JOINT right_foot_cp_3_joint
				{
					OFFSET	-0.06698	-0.08301	-0.12195
					CHANNELS 3  Zrotation Xrotation Yrotation
					End Site
					{
						OFFSET	-0.00020671	-0.00025618	-0.000376355
					}
				}
				JOINT right_foot_cp_4_joint
				{
					OFFSET	0.10495	-0.08301	-0.12195
					CHANNELS 3  Zrotation Xrotation Yrotation
					End Site
					{
						OFFSET	0.000289847	-0.000229254	-0.000336796
					}
				}
			}
		}
	}
}
MOTION
Frames:	13
Frame Time: 1
0	0	0	-90	-3.50824e-15	-90	-0	0	-0	-0	0	-0	-0	0	-0	-0	0	-0	-0	0	-0	-0	0	-0	-0	0	-0	-0	0	-0	-0	0	-0	-0	0	-0	-0	0	-0	-0	0	-0	-0	0	-0	-0	0	-0	-0	0	-0	-0	0	-0	-0	0	-0	-0	0	-0	-0	0	-0	-0	0	-0	-0	0	-0	-0	0	-0	-0	0	-0	-0	0	-0	-0	0	-0	-0	0	-0	-0	0	-0	-0	0	-0	-0	0	-0	-0	0	-0	-0	0	-0	-0	0	-0	-0	0	-0	-0	0	-0
0	0.8	0	-90	-3.50824e-15	-90	-0	0	-0	-0	0	-0	-0	0	-0	19.228	-21.2827	36.64	-180	82.8212	-180	-55.7405	13.7564	6.90333	-0	0	-0	-0	0	-0	-0	0	-0	-0	0	-0	-0	0	-0	-0	0	-0	-28.9237	-26.254	-32.6191	-180	76.2406	-180	59.3395	5.56252	-6.19038	-0	0	-0	-0	0	-0	-0	0	-0	-0	0	-0	-0	0	-0	-7.49151	81.5852	14.1094	-180	-74.4963	-180	1.58018	22.9582	-2.71019	-0	0	-0	-0	0	-0	-0	0	-0	-0	0	-0	4.09242	64.2783	-56.4597	-0	-60.4047	-0	7.41946	-10.0046	22.0387	-0	0	-0	-0	0	-0	-0	0	-0	-0	0	-0
0	0.819612	0.0980581	-90	8.82523	-90	-0	0	-0	-0	0	-0	-0	0	-0	30.2465	-18.8292	40.2455	-0	85.4951	-0	-50.0845	6.75421	18.2583	-0	0	-0	-0	0	-0	-0	0	-0	-0	0	-0	-0	0	-0	-0	0	-0	-6.62481	-29.2969	-24.2951	-180	76.8789	-180	69.2195	7.8009	-10.4955	-0	0	-0	-0	0	-0	-0	0	-0	-0	0	-0	-0	0	-0	-20.0133	75.5716	39.5451	-180	-79.5201	-180	4.4804	23.0508	-10.8147	-0	0	-0	-0	0	-0	-0	0	-0	-0	0	-0	9.6769	73.426	-50.8496	-0	-72.509	-0	1.52078	-5.89641	12.9673	-0	0	-0	-0	0	-0	-0	0	-0	-0	0	-0
0	0.839223	0.196116	-90	17.6505	-90	-0	0	-0	-0	0	-0	-0	0	-0	35.5342	-15.5731	45.2734	-0	69.7796	-0	-36.8182	-1.02969	24.9097	-0	0	-0	-0	0	-0	-0	0	-0	-0	0	-0	-0	0	-0	-0	0	-0	18.4666	-26.4899	-17.828	-180	80.0863	-180	74.6655	7.59033	-9.36012	-0	0	-0	-0	0	-0	-0	0	-0	-0	0	-0	-0	0	-0	-14.7186	67.3241	47.222	-180	-86.3491	-180	5.95054	17.4303	-18.3639	-0	0	-0	-0	0	-0	-0	0	-0	-0	0	-0	-0.880814	77.8826	-30.0284	-0	-80.7513	-0	-1.26042	0.0860831	6.02874	-0	0	-0	-0	0	-0	-0	0	-0	-0	0	-0
0	0.858835	0.294174	-90	26.4757	-90	-0	0	-0	-0	0	-0	-0	0	-0	11.1832	-55.4436	47.3178	-0	81.699	-0	-10.1676	-10.2367	59.7679	-0	0	-0	-0	0	-0	-0	0	-0	-0	0	-0	-0	0	-0	-0	0	-0	40.6229	-19.2782	-12.7846	-180	84.8257	-180	77.4145	5.91755	-1.61131	-0	0	-0	-0	0	-0	-0	0	-0	-0	0	-0	-0	0	-0	-6.25003	56.4808	50.0128	-0	-82.9955	-0	3.91409	14.1541	-25.6558	-0	0	-0	-0	0	-0	-0	0	-0	-0	0	-0	-20.0078	78.1406	-0.135407	-0	-85.9212	-0	-0.983636	5.61121	0.246093	-0	0	-0	-0	0	-0	-0	0	-0	-0	0	-0
0	0.878446	0.392232	-90	35.3009	-90	-0	0	-0	-0	0	-0	-0	0	-0	-17.419	-38.5564	47.784	-0	70.339	-0	-2.19709	-18.3442	48.0302	-0	0	-0	-0	0	-0	-0	0	-0	-0	0	-0	-0	0	-0	-0	0	-0	92.8256	-20.4665	-31.7481	-0	80.9558	-0	50.7075	-11.3486	-23.8904	-0	0	-0	-0	0	-0	-0	0	-0	-0	0	-0	-0	0	-0	7.36216	44.9769	49.2655	-0	-67.1712	-0	0.774508	9.36255	-32.5487	-0	0	-0	-0	0	-0	-0	0	-0	-0	0	-0	-29.9829	73.6926	20.5063	-0	-88.9329	-0	0.831019	13.134	-5.877	-0	0	-0	-0	0	-0	-0	0	-0	-0	0	-0
0	0.898058	0.49029	-90	44.1261	-90	-0	0	-0	-0	0	-0	-0	0	-0	-70.7819	-62.8834	24.8819	-0	64.4417	-0	11.6834	-1.78976	78.4998	-0	0	-0	-0	0	-0	-0	0	-0	-0	0	-0	-0	0	-0	-0	0	-0	58.2118	-3.10948	-31.1816	-0	70.1715	-0	87.9212	1.72665	-10.7081	-0	0	-0	-0	0	-0	-0	0	-0	-0	0	-0	-0	0	-0	67.7699	59.5102	0.4773	-180	-77.6019	-180	0.9549	43.2956	-0.998592	-0	0	-0	-0	0	-0	-0	0	-0	-0	0	-0	-29.9555	67.7434	30.8404	-0	-89.5771	-0	3.61022	17.6691	-12.2602	-0	0	-0	-0	0	-0	-0	0	-0	-0	0	-0
0	0.91767	0.588348	-90	52.9514	-90	-0	0	-0	-0	0	-0	-0	0	-0	-62.699	-61.6726	14.3444	-0	60.7165	-0	29.4201	-2.64894	81.0526	-0	0	-0	-0	0	-0	-0	0	-0	-0	0	-0	-0	0	-0	-0	0	-0	47.7712	-0.313977	-22.725	-0	80.7829	-0	53.3505	2.11852	35.1789	-0	0	-0	-0	0	-0	-0	0	-0	-0	0	-0	-0	0	-0	62.0529	58.7463	17.3967	-180	-83.3271	-180	4.45259	33.018	-10.7706	-0	0	-0	-0	0	-0	-0	0	-0	-0	0	-0	-26.1073	61.3948	36.3481	-0	-88.854	-0	6.23465	17.3042	-17.8024	-0	0	-0	-0	0	-0	-0	0	-0	-0	0	-0
0	0.937281	0.686406	-90	61.7766	-90	-0	0	-0	-0	0	-0	-0	0	-0	-19.6007	-59.1831	21.5941	-0	73.421	-0	16.3344	-11.1064	73.0629	-0	0	-0	-0	0	-0	-0	0	-0	-0	0	-0	-0	0	-0	-0	0	-0	47.7406	-0.29928	-28.4546	-0	80.7829	-0	53.3505	2.11852	35.1789	-0	0	-0	-0	0	-0	-0	0	-0	-0	0	-0	-0	0	-0	59.4496	50.6771	29.4496	-0	-85.9958	-0	4.45019	30.0426	-20.2903	-0	0	-0	-0	0	-0	-0	0	-0	-0	0	-0	-16.0034	53.198	36.8367	-0	-85.5839	-0	11.7151	22.4281	-25.6847	-0	0	-0	-0	0	-0	-0	0	-0	-0	0	-0
0	0.956893	0.784465	-90	70.6018	-90	-0	0	-0	-0	0	-0	-0	0	-0	-22.52	-58.2937	-8.18258	-0	68.1023	-0	11.5549	-4.59617	86.6515	-0	0	-0	-0	0	-0	-0	0	-0	-0	0	-0	-0	0	-0	-0	0	-0	30.6145	-0.325536	-16.9953	-0	80.7829	-0	53.3505	2.11852	35.1789	-0	0	-0	-0	0	-0	-0	0	-0	-0	0	-0	-0	0	-0	61.3529	39.5465	36.4306	-0	-70.5812	-0	0.766827	24.294	-27.4845	-0	0	-0	-0	0	-0	-0	0	-0	-0	0	-0	-6.31063	44.9077	36.7844	-0	-81.3172	-0	14.6079	22.3902	-31.5682	-0	0	-0	-0	0	-0	-0	0	-0	-0	0	-0
0	0.976505	0.882523	-90	79.427	-90	-0	0	-0	-0	0	-0	-0	0	-0	-104.428	-59.1803	-30.1451	-180	89.4582	-180	-39.9593	-30.0243	-46.7169	-0	0	-0	-0	0	-0	-0	0	-0	-0	0	-0	-0	0	-0	-0	0	-0	47.9715	-0.333386	11.6531	-0	80.7829	-0	53.3505	2.11852	35.1789	-0	0	-0	-0	0	-0	-0	0	-0	-0	0	-0	-0	0	-0	71.9911	25.2244	38.9371	-0	-45.8549	-0	-3.726	18.3665	-30.8401	-0	0	-0	-0	0	-0	-0	0	-0	-0	0	-0	3.40143	35.2581	36.0652	-0	-75.4122	-0	15.3775	22.5265	-33.8278	-0	0	-0	-0	0	-0	-0	0	-0	-0	0	-0
0	0.996116	0.980581	-90	88.2523	-90	-0	0	-0	-0	0	-0	-0	0	-0	-104.428	-59.1803	-30.1451	-180	89.4582	-180	-39.9593	-30.0243	-46.7169	-0	0	-0	-0	0	-0	-0	0	-0	-0	0	-0	-0	0	-0	-0	0	-0	47.9715	-0.333386	11.6531	-0	80.7829	-0	53.3505	2.11852	35.1789	-0	0	-0	-0	0	-0	-0	0	-0	-0	0	-0	-0	0	-0	53.8853	60.3665	-8.68637	-0	-70.1448	-0	-0.494154	9.42391	4.23589	-0	0	-0	-0	0	-0	-0	0	-0	-0	0	-0	15.1615	25.3986	34.769	-0	-66.2029	-0	17.7395	23.7406	-37.9471	-0	0	-0	-0	0	-0	-0	0	-0	-0	0	-0
0	1	1	-0	90	180	-0	0	-0	-0	0	-0	-0	0	-0	-104.428	-59.1803	-30.1451	-180	89.4582	-180	-39.9593	-30.0243	-46.7169	-0	0	-0	-0	0	-0	-0	0	-0	-0	0	-0	-0	0	-0	-0	0	-0	47.9715	-0.333386	11.6531	-0	80.7829	-0	53.3505	2.11852	35.1789	-0	0	-0	-0	0	-0	-0	0	-0	-0	0	-0	-0	0	-0	53.6179	60.2595	-6.08599	-0	-71.5118	-0	-0.12798	6.49003	1.74885	-0	0	-0	-0	0	-0	-0	0	-0	-0	0	-0	6.45115	25.9317	34.856	-0	-70.6708	-0	3.73303	12.1922	-17.7416	-0	0	-0	-0	0	-0	-0	0	-0	-0	0	-0
